<svg width="28" height="28" viewBox="0 0 28 28" fill="none" xmlns="http://www.w3.org/2000/svg">
<path d="M15.1784 3.40667L22.0617 6.46333C24.045 7.33833 24.045 8.785 22.0617 9.66L15.1784 12.7167C14.3967 13.0667 13.1134 13.0667 12.3317 12.7167L5.44838 9.66C3.46504 8.785 3.46504 7.33833 5.44838 6.46333L12.3317 3.40667C13.1134 3.05667 14.3967 3.05667 15.1784 3.40667Z" stroke="#F5F5F5" stroke-width="1.6" stroke-linecap="round" stroke-linejoin="round"/>
<path d="M3.5 12.8333C3.5 13.8133 4.235 14.945 5.13333 15.3417L13.055 18.865C13.6617 19.1333 14.35 19.1333 14.945 18.865L22.8667 15.3417C23.765 14.945 24.5 13.8133 24.5 12.8333" stroke="#F5F5F5" stroke-width="1.6" stroke-linecap="round" stroke-linejoin="round"/>
<path d="M3.5 18.6667C3.5 19.7517 4.14167 20.7317 5.13333 21.175L13.055 24.6983C13.6617 24.9667 14.35 24.9667 14.945 24.6983L22.8667 21.175C23.8583 20.7317 24.5 19.7517 24.5 18.6667" stroke="#F5F5F5" stroke-width="1.6" stroke-linecap="round" stroke-linejoin="round"/>
</svg>
