<svg width="22" height="22" viewBox="0 0 22 22" fill="none" xmlns="http://www.w3.org/2000/svg">
<path d="M2.74984 8.24998C3.76236 8.24998 4.58317 7.42917 4.58317 6.41665C4.58317 5.40412 3.76236 4.58331 2.74984 4.58331C1.73732 4.58331 0.916504 5.40412 0.916504 6.41665C0.916504 7.42917 1.73732 8.24998 2.74984 8.24998Z" stroke="#F5F5F5" stroke-width="1.2" stroke-miterlimit="10" stroke-linecap="round" stroke-linejoin="round"/>
<path d="M19.2498 8.24998C20.2624 8.24998 21.0832 7.42917 21.0832 6.41665C21.0832 5.40412 20.2624 4.58331 19.2498 4.58331C18.2373 4.58331 17.4165 5.40412 17.4165 6.41665C17.4165 7.42917 18.2373 8.24998 19.2498 8.24998Z" stroke="#F5F5F5" stroke-width="1.2" stroke-miterlimit="10" stroke-linecap="round" stroke-linejoin="round"/>
<path d="M17.4165 6.41666H13.7499" stroke="#F5F5F5" stroke-width="1.2" stroke-miterlimit="10" stroke-linecap="round" stroke-linejoin="round"/>
<path d="M8.24992 6.41666H4.58325" stroke="#F5F5F5" stroke-width="1.2" stroke-miterlimit="10" stroke-linecap="round" stroke-linejoin="round"/>
<path d="M6.87484 15.125V16.9583C6.87484 17.5175 6.53567 18.0033 6.059 18.205C5.88484 18.2875 5.7015 18.3333 5.49984 18.3333H3.6665C2.90567 18.3333 2.2915 17.7192 2.2915 16.9583V15.125C2.2915 14.3642 2.90567 13.75 3.6665 13.75H5.49984C6.26067 13.75 6.87484 14.3642 6.87484 15.125Z" stroke="#F5F5F5" stroke-width="1.2" stroke-miterlimit="10" stroke-linecap="round" stroke-linejoin="round"/>
<path d="M19.7082 15.125V16.9583C19.7082 17.7192 19.094 18.3333 18.3332 18.3333H16.4999C16.2982 18.3333 16.1149 18.2875 15.9407 18.205C15.464 18.0033 15.1249 17.5175 15.1249 16.9583V15.125C15.1249 14.3642 15.739 13.75 16.4999 13.75H18.3332C19.094 13.75 19.7082 14.3642 19.7082 15.125Z" stroke="#F5F5F5" stroke-width="1.2" stroke-miterlimit="10" stroke-linecap="round" stroke-linejoin="round"/>
<path d="M13.7499 5.04166V7.79166C13.7499 8.54332 13.1265 9.16666 12.3749 9.16666H9.62488C8.87321 9.16666 8.24988 8.54332 8.24988 7.79166V5.04166C8.24988 4.28999 8.87321 3.66666 9.62488 3.66666H12.3749C13.1265 3.66666 13.7499 4.28999 13.7499 5.04166Z" stroke="#F5F5F5" stroke-width="1.2" stroke-miterlimit="10" stroke-linecap="round" stroke-linejoin="round"/>
<path d="M13.7499 7.08582C15.9224 8.18582 17.4165 10.5508 17.4165 13.2917C17.4165 13.4475 17.4074 13.5942 17.389 13.75" stroke="#F5F5F5" stroke-width="1.2" stroke-miterlimit="10" stroke-linecap="round" stroke-linejoin="round"/>
<path d="M4.61075 13.75C4.59242 13.5942 4.58325 13.4475 4.58325 13.2917C4.58325 10.5508 6.07742 8.18582 8.24992 7.08582" stroke="#F5F5F5" stroke-width="1.2" stroke-miterlimit="10" stroke-linecap="round" stroke-linejoin="round"/>
</svg>
