<svg width="28" height="28" viewBox="0 0 28 28" fill="none" xmlns="http://www.w3.org/2000/svg">
<path d="M21.5483 19.635L22.0033 23.3216C22.12 24.29 21.0816 24.9666 20.2533 24.465L15.365 21.56C14.8283 21.56 14.3033 21.525 13.79 21.455C14.6533 20.44 15.1666 19.1566 15.1666 17.7683C15.1666 14.455 12.2966 11.7717 8.74996 11.7717C7.39663 11.7717 6.1483 12.1567 5.10997 12.8333C5.07497 12.5417 5.06329 12.25 5.06329 11.9466C5.06329 6.63832 9.67163 2.33333 15.365 2.33333C21.0583 2.33333 25.6666 6.63832 25.6666 11.9466C25.6666 15.0966 24.045 17.885 21.5483 19.635Z" stroke="#F5F5F5" stroke-width="1.6" stroke-linecap="round" stroke-linejoin="round"/>
<path d="M15.1667 17.7683C15.1667 19.1566 14.6534 20.44 13.79 21.455C12.635 22.855 10.8033 23.7533 8.75001 23.7533L5.70501 25.5616C5.19168 25.8766 4.53834 25.445 4.60834 24.85L4.90001 22.5517C3.33667 21.4667 2.33334 19.7283 2.33334 17.7683C2.33334 15.715 3.43002 13.9067 5.11002 12.8333C6.14835 12.1567 7.39668 11.7717 8.75001 11.7717C12.2967 11.7717 15.1667 14.455 15.1667 17.7683Z" stroke="#F5F5F5" stroke-width="1.6" stroke-linecap="round" stroke-linejoin="round"/>
</svg>
