<svg width="28" height="28" viewBox="0 0 28 28" fill="none" xmlns="http://www.w3.org/2000/svg">
<path d="M3.49996 10.5C4.78862 10.5 5.83329 9.45534 5.83329 8.16668C5.83329 6.87801 4.78862 5.83334 3.49996 5.83334C2.21129 5.83334 1.16663 6.87801 1.16663 8.16668C1.16663 9.45534 2.21129 10.5 3.49996 10.5Z" stroke="#F5F5F5" stroke-width="1.6" stroke-miterlimit="10" stroke-linecap="round" stroke-linejoin="round"/>
<path d="M24.5 10.5C25.7886 10.5 26.8333 9.45534 26.8333 8.16668C26.8333 6.87801 25.7886 5.83334 24.5 5.83334C23.2113 5.83334 22.1666 6.87801 22.1666 8.16668C22.1666 9.45534 23.2113 10.5 24.5 10.5Z" stroke="#F5F5F5" stroke-width="1.6" stroke-miterlimit="10" stroke-linecap="round" stroke-linejoin="round"/>
<path d="M22.1666 8.16666H17.4999" stroke="#F5F5F5" stroke-width="1.6" stroke-miterlimit="10" stroke-linecap="round" stroke-linejoin="round"/>
<path d="M10.4999 8.16666H5.83325" stroke="#F5F5F5" stroke-width="1.6" stroke-miterlimit="10" stroke-linecap="round" stroke-linejoin="round"/>
<path d="M8.74996 19.25V21.5833C8.74996 22.295 8.31829 22.9133 7.71163 23.17C7.48996 23.275 7.25663 23.3333 6.99996 23.3333H4.66663C3.69829 23.3333 2.91663 22.5517 2.91663 21.5833V19.25C2.91663 18.2817 3.69829 17.5 4.66663 17.5H6.99996C7.96829 17.5 8.74996 18.2817 8.74996 19.25Z" stroke="#F5F5F5" stroke-width="1.6" stroke-miterlimit="10" stroke-linecap="round" stroke-linejoin="round"/>
<path d="M25.0833 19.25V21.5833C25.0833 22.5517 24.3016 23.3333 23.3333 23.3333H20.9999C20.7433 23.3333 20.5099 23.275 20.2883 23.17C19.6816 22.9133 19.2499 22.295 19.2499 21.5833V19.25C19.2499 18.2817 20.0316 17.5 20.9999 17.5H23.3333C24.3016 17.5 25.0833 18.2817 25.0833 19.25Z" stroke="#F5F5F5" stroke-width="1.6" stroke-miterlimit="10" stroke-linecap="round" stroke-linejoin="round"/>
<path d="M17.4999 6.41666V9.91666C17.4999 10.8733 16.7066 11.6667 15.7499 11.6667H12.2499C11.2933 11.6667 10.4999 10.8733 10.4999 9.91666V6.41666C10.4999 5.45999 11.2933 4.66666 12.2499 4.66666H15.7499C16.7066 4.66666 17.4999 5.45999 17.4999 6.41666Z" stroke="#F5F5F5" stroke-width="1.6" stroke-miterlimit="10" stroke-linecap="round" stroke-linejoin="round"/>
<path d="M17.4999 9.01831C20.2649 10.4183 22.1666 13.4283 22.1666 16.9167C22.1666 17.115 22.1549 17.3017 22.1316 17.5" stroke="#F5F5F5" stroke-width="1.6" stroke-miterlimit="10" stroke-linecap="round" stroke-linejoin="round"/>
<path d="M5.86825 17.5C5.84492 17.3017 5.83325 17.115 5.83325 16.9167C5.83325 13.4283 7.73492 10.4183 10.4999 9.01831" stroke="#F5F5F5" stroke-width="1.6" stroke-miterlimit="10" stroke-linecap="round" stroke-linejoin="round"/>
</svg>
