<svg width="22" height="22" viewBox="0 0 22 22" fill="none" xmlns="http://www.w3.org/2000/svg">
<path d="M11.9258 2.67668L17.3341 5.07834C18.8925 5.76585 18.8925 6.90251 17.3341 7.59001L11.9258 9.99168C11.3116 10.2667 10.3033 10.2667 9.68914 9.99168L4.28081 7.59001C2.72248 6.90251 2.72248 5.76585 4.28081 5.07834L9.68914 2.67668C10.3033 2.40168 11.3116 2.40168 11.9258 2.67668Z" stroke="#F5F5F5" stroke-width="1.2" stroke-linecap="round" stroke-linejoin="round"/>
<path d="M2.75 10.0833C2.75 10.8533 3.3275 11.7425 4.03333 12.0542L10.2575 14.8225C10.7342 15.0333 11.275 15.0333 11.7425 14.8225L17.9667 12.0542C18.6725 11.7425 19.25 10.8533 19.25 10.0833" stroke="#F5F5F5" stroke-width="1.2" stroke-linecap="round" stroke-linejoin="round"/>
<path d="M2.75 14.6667C2.75 15.5192 3.25417 16.2892 4.03333 16.6375L10.2575 19.4058C10.7342 19.6167 11.275 19.6167 11.7425 19.4058L17.9667 16.6375C18.7458 16.2892 19.25 15.5192 19.25 14.6667" stroke="#F5F5F5" stroke-width="1.2" stroke-linecap="round" stroke-linejoin="round"/>
</svg>
