<svg width="14" height="14" viewBox="0 0 14 14" fill="none" xmlns="http://www.w3.org/2000/svg">
<path d="M10.4884 6.29417V8.6275C10.4884 8.77917 10.4826 8.925 10.4651 9.065C10.3309 10.64 9.40342 11.4217 7.69425 11.4217H7.46092C7.31509 11.4217 7.17508 11.4917 7.08758 11.6083L6.38759 12.5417C6.07842 12.9558 5.57675 12.9558 5.26758 12.5417L4.56757 11.6083C4.49174 11.5092 4.32258 11.4217 4.19425 11.4217H3.96092C2.10009 11.4217 1.16675 10.9608 1.16675 8.6275V6.29417C1.16675 4.585 1.95425 3.6575 3.52342 3.52334C3.66342 3.50584 3.80925 3.5 3.96092 3.5H7.69425C9.55508 3.5 10.4884 4.43334 10.4884 6.29417Z" stroke="#F5F5F5" stroke-width="0.8" stroke-miterlimit="10" stroke-linecap="round" stroke-linejoin="round"/>
<path d="M12.8218 3.96083V6.29416C12.8218 8.00916 12.0343 8.93083 10.4651 9.06499C10.4826 8.92499 10.4884 8.77916 10.4884 8.62749V6.29416C10.4884 4.43333 9.5551 3.49999 7.69427 3.49999H3.96094C3.80927 3.49999 3.66344 3.50583 3.52344 3.52333C3.6576 1.95416 4.5851 1.16666 6.29427 1.16666H10.0276C11.8884 1.16666 12.8218 2.09999 12.8218 3.96083Z" stroke="#F5F5F5" stroke-width="0.8" stroke-miterlimit="10" stroke-linecap="round" stroke-linejoin="round"/>
<path d="M7.87276 7.72939H7.87802" stroke="#F5F5F5" stroke-width="0.8" stroke-linecap="round" stroke-linejoin="round"/>
<path d="M5.83101 7.72939H5.83627" stroke="#F5F5F5" stroke-width="0.8" stroke-linecap="round" stroke-linejoin="round"/>
<path d="M3.78939 7.72939H3.79464" stroke="#F5F5F5" stroke-width="0.8" stroke-linecap="round" stroke-linejoin="round"/>
</svg>
