<svg width="22" height="22" viewBox="0 0 22 22" fill="none" xmlns="http://www.w3.org/2000/svg">
<path d="M9.16671 4.12501V16.5C9.16671 17.49 8.76336 18.3975 8.12169 19.0575L8.08505 19.0942C8.00255 19.1767 7.91088 19.2592 7.82838 19.3233C7.55338 19.5617 7.2417 19.745 6.92086 19.8733C6.82003 19.9192 6.71921 19.9558 6.61838 19.9925C6.26088 20.1117 5.87587 20.1667 5.50004 20.1667C5.25254 20.1667 5.00505 20.1392 4.76672 20.0933C4.64755 20.0658 4.52837 20.0384 4.40921 20.0017C4.26254 19.9559 4.12505 19.91 3.98755 19.8458C3.98755 19.8367 3.98754 19.8367 3.97837 19.8458C3.7217 19.7175 3.47422 19.5708 3.24505 19.3967L3.23587 19.3875C3.11671 19.2958 3.00672 19.2042 2.90589 19.0942C2.80505 18.9842 2.7042 18.8742 2.60337 18.755C2.4292 18.5259 2.28255 18.2783 2.15421 18.0217C2.16338 18.0125 2.16338 18.0125 2.15421 18.0125C2.15421 18.0125 2.1542 18.0033 2.14504 17.9942C2.09004 17.8658 2.0442 17.7283 1.99837 17.5908C1.9617 17.4717 1.9342 17.3525 1.9067 17.2333C1.86086 16.995 1.83337 16.7475 1.83337 16.5V4.12501C1.83337 2.75001 2.75004 1.83334 4.12504 1.83334H6.87504C8.25004 1.83334 9.16671 2.75001 9.16671 4.12501Z" stroke="#F5F5F5" stroke-width="1.2" stroke-linecap="round" stroke-linejoin="round"/>
<path d="M20.1667 15.125V17.875C20.1667 19.25 19.25 20.1667 17.875 20.1667H5.5C5.87583 20.1667 6.26083 20.1117 6.61833 19.9925C6.71917 19.9558 6.81999 19.9192 6.92082 19.8733C7.24166 19.745 7.55334 19.5617 7.82834 19.3233C7.91084 19.2592 8.00251 19.1767 8.08501 19.0942L8.12165 19.0575L14.355 12.8333H17.875C19.25 12.8333 20.1667 13.75 20.1667 15.125Z" stroke="#F5F5F5" stroke-width="1.2" stroke-linecap="round" stroke-linejoin="round"/>
<path d="M4.40913 20.0017C3.85913 19.8367 3.33664 19.5342 2.90581 19.0942C2.46581 18.6633 2.16329 18.1408 1.99829 17.5908C2.35579 18.7367 3.2633 19.6442 4.40913 20.0017Z" stroke="#F5F5F5" stroke-width="1.2" stroke-linecap="round" stroke-linejoin="round"/>
<path d="M16.8391 10.3492L14.3549 12.8333L8.12158 19.0575C8.76325 18.3975 9.1666 17.49 9.1666 16.5V7.64501L11.6508 5.16085C12.6224 4.18918 13.9241 4.18918 14.8958 5.16085L16.8391 7.10418C17.8108 8.07584 17.8108 9.3775 16.8391 10.3492Z" stroke="#F5F5F5" stroke-width="1.2" stroke-linecap="round" stroke-linejoin="round"/>
<path d="M5.50004 17.4167C6.0063 17.4167 6.41671 17.0063 6.41671 16.5C6.41671 15.9937 6.0063 15.5833 5.50004 15.5833C4.99378 15.5833 4.58337 15.9937 4.58337 16.5C4.58337 17.0063 4.99378 17.4167 5.50004 17.4167Z" stroke="#F5F5F5" stroke-width="1.2" stroke-linecap="round" stroke-linejoin="round"/>
</svg>
