<svg width="14" height="14" viewBox="0 0 14 14" fill="none" xmlns="http://www.w3.org/2000/svg">
<path d="M1.74992 5.25002C2.39425 5.25002 2.91658 4.72769 2.91658 4.08335C2.91658 3.43902 2.39425 2.91669 1.74992 2.91669C1.10559 2.91669 0.583252 3.43902 0.583252 4.08335C0.583252 4.72769 1.10559 5.25002 1.74992 5.25002Z" stroke="#F5F5F5" stroke-width="0.8" stroke-miterlimit="10" stroke-linecap="round" stroke-linejoin="round"/>
<path d="M12.2502 5.25002C12.8945 5.25002 13.4168 4.72769 13.4168 4.08335C13.4168 3.43902 12.8945 2.91669 12.2502 2.91669C11.6058 2.91669 11.0835 3.43902 11.0835 4.08335C11.0835 4.72769 11.6058 5.25002 12.2502 5.25002Z" stroke="#F5F5F5" stroke-width="0.8" stroke-miterlimit="10" stroke-linecap="round" stroke-linejoin="round"/>
<path d="M11.0833 4.08334H8.75" stroke="#F5F5F5" stroke-width="0.8" stroke-miterlimit="10" stroke-linecap="round" stroke-linejoin="round"/>
<path d="M5.25033 4.08334H2.91699" stroke="#F5F5F5" stroke-width="0.8" stroke-miterlimit="10" stroke-linecap="round" stroke-linejoin="round"/>
<path d="M4.37516 9.62503V10.7917C4.37516 11.1475 4.15933 11.4567 3.856 11.585C3.74516 11.6375 3.6285 11.6667 3.50016 11.6667H2.3335C1.84933 11.6667 1.4585 11.2759 1.4585 10.7917V9.62503C1.4585 9.14086 1.84933 8.75003 2.3335 8.75003H3.50016C3.98433 8.75003 4.37516 9.14086 4.37516 9.62503Z" stroke="#F5F5F5" stroke-width="0.8" stroke-miterlimit="10" stroke-linecap="round" stroke-linejoin="round"/>
<path d="M12.5417 9.62503V10.7917C12.5417 11.2759 12.1508 11.6667 11.6667 11.6667H10.5C10.3717 11.6667 10.255 11.6375 10.1442 11.585C9.84083 11.4567 9.625 11.1475 9.625 10.7917V9.62503C9.625 9.14086 10.0158 8.75003 10.5 8.75003H11.6667C12.1508 8.75003 12.5417 9.14086 12.5417 9.62503Z" stroke="#F5F5F5" stroke-width="0.8" stroke-miterlimit="10" stroke-linecap="round" stroke-linejoin="round"/>
<path d="M8.75 3.20834V4.95834C8.75 5.43668 8.35333 5.83334 7.875 5.83334H6.125C5.64667 5.83334 5.25 5.43668 5.25 4.95834V3.20834C5.25 2.73001 5.64667 2.33334 6.125 2.33334H7.875C8.35333 2.33334 8.75 2.73001 8.75 3.20834Z" stroke="#F5F5F5" stroke-width="0.8" stroke-miterlimit="10" stroke-linecap="round" stroke-linejoin="round"/>
<path d="M8.75 4.50916C10.1325 5.20916 11.0833 6.71417 11.0833 8.45833C11.0833 8.5575 11.0775 8.65083 11.0658 8.75" stroke="#F5F5F5" stroke-width="0.8" stroke-miterlimit="10" stroke-linecap="round" stroke-linejoin="round"/>
<path d="M2.93449 8.75C2.92283 8.65083 2.91699 8.5575 2.91699 8.45833C2.91699 6.71417 3.86783 5.20916 5.25033 4.50916" stroke="#F5F5F5" stroke-width="0.8" stroke-miterlimit="10" stroke-linecap="round" stroke-linejoin="round"/>
</svg>
