<svg width="22" height="22" viewBox="0 0 22 22" fill="none" xmlns="http://www.w3.org/2000/svg">
<path d="M16.9309 15.4275L17.2884 18.3242C17.3801 19.085 16.5642 19.6166 15.9134 19.2225L12.0726 16.94C11.6509 16.94 11.2384 16.9125 10.8351 16.8575C11.5134 16.06 11.9167 15.0516 11.9167 13.9608C11.9167 11.3575 9.66173 9.24919 6.87506 9.24919C5.81173 9.24919 4.8309 9.55166 4.01507 10.0833C3.98757 9.85416 3.97839 9.62499 3.97839 9.38665C3.97839 5.21582 7.59923 1.83333 12.0726 1.83333C16.5459 1.83333 20.1667 5.21582 20.1667 9.38665C20.1667 11.8617 18.8926 14.0525 16.9309 15.4275Z" stroke="#F5F5F5" stroke-width="1.2" stroke-linecap="round" stroke-linejoin="round"/>
<path d="M11.9167 13.9608C11.9167 15.0516 11.5134 16.06 10.835 16.8575C9.92755 17.9575 8.48837 18.6633 6.87504 18.6633L4.48254 20.0841C4.07921 20.3316 3.56587 19.9925 3.62087 19.525L3.85004 17.7192C2.6217 16.8667 1.83337 15.5008 1.83337 13.9608C1.83337 12.3475 2.69505 10.9267 4.01505 10.0833C4.83088 9.55167 5.81171 9.24919 6.87504 9.24919C9.66171 9.24919 11.9167 11.3575 11.9167 13.9608Z" stroke="#F5F5F5" stroke-width="1.2" stroke-linecap="round" stroke-linejoin="round"/>
</svg>
