<svg width="22" height="22" viewBox="0 0 22 22" fill="none" xmlns="http://www.w3.org/2000/svg">
<path d="M3.82236 14.025L7.97486 18.1775C9.67986 19.8825 12.4482 19.8825 14.1624 18.1775L18.1865 14.1534C19.8915 12.4484 19.8915 9.68005 18.1865 7.96588L14.0249 3.82255C13.154 2.95171 11.9532 2.48421 10.7249 2.54838L6.14153 2.76838C4.30819 2.85088 2.85069 4.30838 2.75903 6.13255L2.53903 10.7159C2.48403 11.9534 2.95153 13.1542 3.82236 14.025Z" stroke="#F5F5F5" stroke-width="1.2" stroke-linecap="round" stroke-linejoin="round"/>
<path d="M8.70817 11.0001C9.97382 11.0001 10.9998 9.97404 10.9998 8.70838C10.9998 7.44273 9.97382 6.41672 8.70817 6.41672C7.44252 6.41672 6.4165 7.44273 6.4165 8.70838C6.4165 9.97404 7.44252 11.0001 8.70817 11.0001Z" stroke="#F5F5F5" stroke-width="1.2" stroke-linecap="round"/>
</svg>
