<svg width="28" height="28" viewBox="0 0 28 28" fill="none" xmlns="http://www.w3.org/2000/svg">
<path d="M4.8649 17.8501L10.1499 23.1351C12.3199 25.3051 15.8432 25.3051 18.0249 23.1351L23.1466 18.0134C25.3166 15.8434 25.3166 12.3201 23.1466 10.1384L17.8499 4.86506C16.7416 3.75672 15.2132 3.16172 13.6499 3.24339L7.81656 3.52339C5.48323 3.62839 3.62823 5.48339 3.51156 7.80506L3.23156 13.6384C3.16156 15.2134 3.75656 16.7417 4.8649 17.8501Z" stroke="#F5F5F5" stroke-width="1.6" stroke-linecap="round" stroke-linejoin="round"/>
<path d="M11.0832 14.0001C12.694 14.0001 13.9998 12.6942 13.9998 11.0834C13.9998 9.47258 12.694 8.16675 11.0832 8.16675C9.47234 8.16675 8.1665 9.47258 8.1665 11.0834C8.1665 12.6942 9.47234 14.0001 11.0832 14.0001Z" stroke="#F5F5F5" stroke-width="1.6" stroke-linecap="round"/>
</svg>
