<svg width="14" height="14" viewBox="0 0 14 14" fill="none" xmlns="http://www.w3.org/2000/svg">
<path d="M12.8159 10.6925C12.8159 10.9025 12.7692 11.1184 12.6701 11.3284C12.5709 11.5384 12.4426 11.7367 12.2734 11.9234C11.9876 12.2384 11.6726 12.4659 11.3167 12.6117C10.9667 12.7575 10.5876 12.8334 10.1792 12.8334C9.58425 12.8334 8.94841 12.6934 8.27758 12.4075C7.60675 12.1217 6.93591 11.7367 6.27091 11.2525C5.60008 10.7625 4.96425 10.22 4.35758 9.61919C3.75675 9.01252 3.21425 8.37669 2.73008 7.71169C2.25175 7.04669 1.86675 6.38169 1.58675 5.72252C1.30675 5.05752 1.16675 4.42169 1.16675 3.81502C1.16675 3.41835 1.23675 3.03919 1.37675 2.68919C1.51675 2.33335 1.73841 2.00669 2.04758 1.71502C2.42091 1.34752 2.82925 1.16669 3.26091 1.16669C3.42425 1.16669 3.58758 1.20169 3.73341 1.27169C3.88508 1.34169 4.01925 1.44669 4.12425 1.59835L5.47758 3.50585C5.58258 3.65169 5.65841 3.78585 5.71091 3.91419C5.76341 4.03669 5.79258 4.15919 5.79258 4.27002C5.79258 4.41002 5.75175 4.55002 5.67008 4.68419C5.59425 4.81835 5.48341 4.95835 5.34341 5.09835L4.90008 5.55919C4.83591 5.62335 4.80675 5.69919 4.80675 5.79252C4.80675 5.83919 4.81258 5.88002 4.82425 5.92669C4.84175 5.97335 4.85925 6.00835 4.87091 6.04335C4.97591 6.23585 5.15675 6.48669 5.41341 6.79002C5.67591 7.09335 5.95591 7.40252 6.25925 7.71169C6.57425 8.02085 6.87758 8.30669 7.18675 8.56919C7.49008 8.82585 7.74091 9.00085 7.93925 9.10585C7.96841 9.11752 8.00341 9.13502 8.04425 9.15252C8.09091 9.17002 8.13758 9.17585 8.19008 9.17585C8.28925 9.17585 8.36508 9.14085 8.42925 9.07669L8.87258 8.63919C9.01841 8.49335 9.15841 8.38252 9.29258 8.31252C9.42675 8.23085 9.56091 8.19002 9.70675 8.19002C9.81758 8.19002 9.93425 8.21335 10.0626 8.26585C10.1909 8.31835 10.3251 8.39419 10.4709 8.49335L12.4017 9.86419C12.5534 9.96919 12.6584 10.0917 12.7226 10.2375C12.7809 10.3834 12.8159 10.5292 12.8159 10.6925Z" stroke="#F5F5F5" stroke-width="0.8" stroke-miterlimit="10"/>
</svg>
