<svg width="28" height="28" viewBox="0 0 28 28" fill="none" xmlns="http://www.w3.org/2000/svg">
<path d="M25.6316 21.385C25.6316 21.805 25.5383 22.2367 25.34 22.6567C25.1416 23.0767 24.885 23.4733 24.5466 23.8467C23.975 24.4767 23.345 24.9317 22.6333 25.2233C21.9333 25.515 21.175 25.6667 20.3583 25.6667C19.1683 25.6667 17.8966 25.3867 16.555 24.815C15.2133 24.2433 13.8716 23.4733 12.5416 22.505C11.2 21.525 9.92831 20.44 8.71498 19.2383C7.51331 18.025 6.42831 16.7533 5.45998 15.4233C4.50331 14.0933 3.73331 12.7633 3.17331 11.445C2.61331 10.115 2.33331 8.84334 2.33331 7.63001C2.33331 6.83668 2.47331 6.07834 2.75331 5.37834C3.03331 4.66668 3.47665 4.01334 4.09498 3.43001C4.84165 2.69501 5.65831 2.33334 6.52165 2.33334C6.84831 2.33334 7.17498 2.40334 7.46665 2.54334C7.76998 2.68334 8.03831 2.89334 8.24831 3.19668L10.955 7.01168C11.165 7.30334 11.3166 7.57168 11.4216 7.82834C11.5266 8.07334 11.585 8.31834 11.585 8.54001C11.585 8.82001 11.5033 9.10001 11.34 9.36834C11.1883 9.63668 10.9666 9.91668 10.6866 10.1967L9.79998 11.1183C9.67165 11.2467 9.61331 11.3983 9.61331 11.585C9.61331 11.6783 9.62498 11.76 9.64831 11.8533C9.68331 11.9467 9.71831 12.0167 9.74165 12.0867C9.95165 12.4717 10.3133 12.9733 10.8266 13.58C11.3516 14.1867 11.9116 14.805 12.5183 15.4233C13.1483 16.0417 13.755 16.6133 14.3733 17.1383C14.98 17.6517 15.4816 18.0017 15.8783 18.2117C15.9366 18.235 16.0066 18.27 16.0883 18.305C16.1816 18.34 16.275 18.3517 16.38 18.3517C16.5783 18.3517 16.73 18.2817 16.8583 18.1533L17.745 17.2783C18.0366 16.9867 18.3166 16.765 18.585 16.625C18.8533 16.4617 19.1216 16.38 19.4133 16.38C19.635 16.38 19.8683 16.4267 20.125 16.5317C20.3816 16.6367 20.65 16.7883 20.9416 16.9867L24.8033 19.7283C25.1066 19.9383 25.3166 20.1833 25.445 20.475C25.5616 20.7667 25.6316 21.0583 25.6316 21.385Z" stroke="#F5F5F5" stroke-width="1.6" stroke-miterlimit="10"/>
</svg>
