<svg width="14" height="14" viewBox="0 0 14 14" fill="none" xmlns="http://www.w3.org/2000/svg">
<path d="M5.83341 2.62502V10.5C5.83341 11.13 5.57674 11.7075 5.16841 12.1275L5.14509 12.1509C5.09259 12.2034 5.03425 12.2559 4.98175 12.2967C4.80675 12.4484 4.60841 12.565 4.40424 12.6467C4.34007 12.6758 4.27592 12.6992 4.21175 12.7225C3.98425 12.7984 3.73925 12.8334 3.50008 12.8334C3.34258 12.8334 3.18509 12.8159 3.03342 12.7867C2.95759 12.7692 2.88175 12.7517 2.80591 12.7284C2.71258 12.6992 2.62508 12.67 2.53758 12.6292C2.53758 12.6233 2.53758 12.6233 2.53175 12.6292C2.36841 12.5475 2.21092 12.4542 2.06509 12.3434L2.05925 12.3375C1.98341 12.2792 1.91342 12.2209 1.84926 12.1509C1.78509 12.0809 1.72091 12.0109 1.65675 11.935C1.54591 11.7892 1.45258 11.6317 1.37092 11.4684C1.37675 11.4625 1.37675 11.4625 1.37092 11.4625C1.37092 11.4625 1.37091 11.4567 1.36508 11.4509C1.33008 11.3692 1.30091 11.2817 1.27174 11.1942C1.24841 11.1184 1.23091 11.0425 1.21341 10.9667C1.18424 10.815 1.16675 10.6575 1.16675 10.5V2.62502C1.16675 1.75002 1.75008 1.16669 2.62508 1.16669H4.37508C5.25008 1.16669 5.83341 1.75002 5.83341 2.62502Z" stroke="#F5F5F5" stroke-width="0.8" stroke-linecap="round" stroke-linejoin="round"/>
<path d="M12.8336 9.62502V11.375C12.8336 12.25 12.2502 12.8334 11.3752 12.8334H3.50024C3.73941 12.8334 3.98441 12.7984 4.21191 12.7225C4.27608 12.6992 4.34024 12.6758 4.4044 12.6467C4.60857 12.565 4.80692 12.4484 4.98192 12.2967C5.03442 12.2559 5.09275 12.2034 5.14525 12.1509L5.16857 12.1275L9.13525 8.16669H11.3752C12.2502 8.16669 12.8336 8.75002 12.8336 9.62502Z" stroke="#F5F5F5" stroke-width="0.8" stroke-linecap="round" stroke-linejoin="round"/>
<path d="M2.8059 12.7284C2.4559 12.6234 2.12341 12.4308 1.84924 12.1508C1.56924 11.8767 1.37673 11.5442 1.27173 11.1942C1.49923 11.9233 2.07673 12.5009 2.8059 12.7284Z" stroke="#F5F5F5" stroke-width="0.8" stroke-linecap="round" stroke-linejoin="round"/>
<path d="M10.716 6.58584L9.13513 8.16668L5.16846 12.1275C5.57679 11.7075 5.83347 11.13 5.83347 10.5V4.86501L7.41429 3.28418C8.03263 2.66585 8.86097 2.66585 9.4793 3.28418L10.716 4.52085C11.3343 5.13918 11.3343 5.96751 10.716 6.58584Z" stroke="#F5F5F5" stroke-width="0.8" stroke-linecap="round" stroke-linejoin="round"/>
<path d="M3.50078 11.0842C3.8232 11.0842 4.08457 10.8229 4.08457 10.5004C4.08457 10.178 3.8232 9.91666 3.50078 9.91666C3.17836 9.91666 2.91699 10.178 2.91699 10.5004C2.91699 10.8229 3.17836 11.0842 3.50078 11.0842Z" stroke="#F5F5F5" stroke-width="0.8" stroke-linecap="round" stroke-linejoin="round"/>
</svg>
