<svg width="14" height="14" viewBox="0 0 14 14" fill="none" xmlns="http://www.w3.org/2000/svg">
<path d="M7.58946 1.70333L11.0311 3.23167C12.0228 3.66917 12.0228 4.3925 11.0311 4.83L7.58946 6.35833C7.19863 6.53333 6.55696 6.53333 6.16613 6.35833L2.72446 4.83C1.7328 4.3925 1.7328 3.66917 2.72446 3.23167L6.16613 1.70333C6.55696 1.52833 7.19863 1.52833 7.58946 1.70333Z" stroke="#F5F5F5" stroke-width="0.8" stroke-linecap="round" stroke-linejoin="round"/>
<path d="M1.75 6.41666C1.75 6.90666 2.1175 7.47249 2.56667 7.67082L6.5275 9.43249C6.83083 9.56666 7.175 9.56666 7.4725 9.43249L11.4333 7.67082C11.8825 7.47249 12.25 6.90666 12.25 6.41666" stroke="#F5F5F5" stroke-width="0.8" stroke-linecap="round" stroke-linejoin="round"/>
<path d="M1.75 9.33331C1.75 9.87581 2.07083 10.3658 2.56667 10.5875L6.5275 12.3491C6.83083 12.4833 7.175 12.4833 7.4725 12.3491L11.4333 10.5875C11.9292 10.3658 12.25 9.87581 12.25 9.33331" stroke="#F5F5F5" stroke-width="0.8" stroke-linecap="round" stroke-linejoin="round"/>
</svg>
