<svg width="28" height="28" viewBox="0 0 28 28" fill="none" xmlns="http://www.w3.org/2000/svg">
<path d="M11.6666 5.25001V21C11.6666 22.26 11.1533 23.415 10.3366 24.255L10.29 24.3017C10.185 24.4067 10.0683 24.5117 9.96332 24.5933C9.61332 24.8967 9.21663 25.13 8.8083 25.2933C8.67997 25.3517 8.55165 25.3983 8.42331 25.445C7.96831 25.5967 7.47831 25.6667 6.99998 25.6667C6.68498 25.6667 6.36999 25.6317 6.06666 25.5733C5.91499 25.5383 5.76331 25.5034 5.61164 25.4567C5.42498 25.3984 5.24999 25.34 5.07499 25.2583C5.07499 25.2467 5.07498 25.2467 5.06331 25.2583C4.73664 25.095 4.42166 24.9083 4.12999 24.6867L4.11831 24.675C3.96664 24.5583 3.82666 24.4417 3.69833 24.3017C3.57 24.1617 3.44164 24.0217 3.31331 23.87C3.09164 23.5784 2.90499 23.2633 2.74165 22.9367C2.75332 22.925 2.75332 22.925 2.74165 22.925C2.74165 22.925 2.74164 22.9134 2.72998 22.9017C2.65998 22.7384 2.60164 22.5633 2.5433 22.3883C2.49664 22.2367 2.46163 22.085 2.42663 21.9333C2.3683 21.63 2.33331 21.315 2.33331 21V5.25001C2.33331 3.50001 3.49998 2.33334 5.24998 2.33334H8.74998C10.5 2.33334 11.6666 3.50001 11.6666 5.25001Z" stroke="#F5F5F5" stroke-width="1.6" stroke-linecap="round" stroke-linejoin="round"/>
<path d="M25.6667 19.25V22.75C25.6667 24.5 24.5 25.6667 22.75 25.6667H7C7.47833 25.6667 7.96833 25.5967 8.42333 25.445C8.55167 25.3983 8.67999 25.3517 8.80832 25.2933C9.21665 25.13 9.61334 24.8967 9.96334 24.5933C10.0683 24.5117 10.185 24.4067 10.29 24.3017L10.3366 24.255L18.27 16.3333H22.75C24.5 16.3333 25.6667 17.5 25.6667 19.25Z" stroke="#F5F5F5" stroke-width="1.6" stroke-linecap="round" stroke-linejoin="round"/>
<path d="M5.61161 25.4567C4.91161 25.2467 4.24663 24.8617 3.6983 24.3017C3.1383 23.7533 2.75327 23.0883 2.54327 22.3883C2.99827 23.8467 4.15328 25.0017 5.61161 25.4567Z" stroke="#F5F5F5" stroke-width="1.6" stroke-linecap="round" stroke-linejoin="round"/>
<path d="M21.4315 13.1717L18.2698 16.3334L10.3365 24.255C11.1532 23.415 11.6665 22.26 11.6665 21V9.73003L14.8282 6.56837C16.0648 5.3317 17.7215 5.3317 18.9582 6.56837L21.4315 9.0417C22.6682 10.2784 22.6682 11.935 21.4315 13.1717Z" stroke="#F5F5F5" stroke-width="1.6" stroke-linecap="round" stroke-linejoin="round"/>
<path d="M6.99998 22.1667C7.64431 22.1667 8.16665 21.6443 8.16665 21C8.16665 20.3557 7.64431 19.8333 6.99998 19.8333C6.35565 19.8333 5.83331 20.3557 5.83331 21C5.83331 21.6443 6.35565 22.1667 6.99998 22.1667Z" stroke="#F5F5F5" stroke-width="1.6" stroke-linecap="round" stroke-linejoin="round"/>
</svg>
