<svg width="28" height="28" viewBox="0 0 28 28" fill="none" xmlns="http://www.w3.org/2000/svg">
<path d="M20.9767 12.5883V17.255C20.9767 17.5583 20.965 17.85 20.93 18.13C20.6617 21.28 18.8067 22.8433 15.3883 22.8433H14.9217C14.63 22.8433 14.35 22.9833 14.175 23.2167L12.775 25.0833C12.1567 25.9117 11.1533 25.9117 10.535 25.0833L9.13499 23.2167C8.98333 23.0183 8.64501 22.8433 8.38835 22.8433H7.92169C4.20002 22.8433 2.33334 21.9217 2.33334 17.255V12.5883C2.33334 9.17001 3.90835 7.31501 7.04669 7.04668C7.32669 7.01168 7.61835 7 7.92169 7H15.3883C19.11 7 20.9767 8.86668 20.9767 12.5883Z" stroke="#F5F5F5" stroke-width="1.6" stroke-miterlimit="10" stroke-linecap="round" stroke-linejoin="round"/>
<path d="M25.6434 7.92169V12.5884C25.6434 16.0184 24.0684 17.8617 20.93 18.13C20.965 17.85 20.9767 17.5584 20.9767 17.255V12.5884C20.9767 8.86669 19.11 7.00001 15.3884 7.00001H7.92172C7.61839 7.00001 7.32672 7.01169 7.04672 7.04669C7.31506 3.90835 9.17006 2.33334 12.5884 2.33334H20.055C23.7767 2.33334 25.6434 4.20002 25.6434 7.92169Z" stroke="#F5F5F5" stroke-width="1.6" stroke-miterlimit="10" stroke-linecap="round" stroke-linejoin="round"/>
<path d="M15.7447 15.4583H15.7552" stroke="#F5F5F5" stroke-width="1.6" stroke-linecap="round" stroke-linejoin="round"/>
<path d="M11.6614 15.4583H11.6719" stroke="#F5F5F5" stroke-width="1.6" stroke-linecap="round" stroke-linejoin="round"/>
<path d="M7.57808 15.4583H7.58858" stroke="#F5F5F5" stroke-width="1.6" stroke-linecap="round" stroke-linejoin="round"/>
</svg>
