<svg width="14" height="14" viewBox="0 0 14 14" fill="none" xmlns="http://www.w3.org/2000/svg">
<path d="M10.7742 9.8175L11.0017 11.6608C11.0601 12.145 10.5409 12.4833 10.1267 12.2325L7.68257 10.78C7.41424 10.78 7.15174 10.7625 6.89508 10.7275C7.32674 10.22 7.58341 9.57831 7.58341 8.88414C7.58341 7.22748 6.14841 5.88584 4.37507 5.88584C3.69841 5.88584 3.07424 6.07832 2.55508 6.41666C2.53758 6.27082 2.53174 6.12498 2.53174 5.97332C2.53174 3.31915 4.83591 1.16666 7.68257 1.16666C10.5292 1.16666 12.8334 3.31915 12.8334 5.97332C12.8334 7.54832 12.0226 8.9425 10.7742 9.8175Z" stroke="#F5F5F5" stroke-width="0.8" stroke-linecap="round" stroke-linejoin="round"/>
<path d="M7.58317 8.88414C7.58317 9.57831 7.32651 10.22 6.89484 10.7275C6.31734 11.4275 5.4015 11.8766 4.37484 11.8766L2.85234 12.7808C2.59567 12.9383 2.269 12.7225 2.304 12.425L2.44984 11.2758C1.66817 10.7333 1.1665 9.86414 1.1665 8.88414C1.1665 7.85747 1.71484 6.95332 2.55484 6.41665C3.07401 6.07832 3.69817 5.88583 4.37484 5.88583C6.14817 5.88583 7.58317 7.22747 7.58317 8.88414Z" stroke="#F5F5F5" stroke-width="0.8" stroke-linecap="round" stroke-linejoin="round"/>
</svg>
